<?xml version="1.0" encoding="UTF-8" standalone="no"?>
<!-- Created with Inkscape (http://www.inkscape.org/) -->

<svg
   xmlns:dc="http://purl.org/dc/elements/1.1/"
   xmlns:cc="http://creativecommons.org/ns#"
   xmlns:rdf="http://www.w3.org/1999/02/22-rdf-syntax-ns#"
   xmlns:svg="http://www.w3.org/2000/svg"
   xmlns="http://www.w3.org/2000/svg"
   xmlns:sodipodi="http://sodipodi.sourceforge.net/DTD/sodipodi-0.dtd"
   xmlns:inkscape="http://www.inkscape.org/namespaces/inkscape"
   width="2161.4172"
   height="1080.7086"
   id="svg6318"
   version="1.1"
   inkscape:version="0.48.2 r9819"
   sodipodi:docname="house_BC.svg">
  <defs
     id="defs6320" />
  <sodipodi:namedview
     id="base"
     pagecolor="#ffffff"
     bordercolor="#666666"
     borderopacity="1.0"
     inkscape:pageopacity="0.0"
     inkscape:pageshadow="2"
     inkscape:zoom="0.45961941"
     inkscape:cx="1014.2873"
     inkscape:cy="540.35431"
     inkscape:document-units="px"
     inkscape:current-layer="layer1"
     showgrid="false"
     units="mm"
     showguides="true"
     inkscape:guide-bbox="true"
     inkscape:window-width="1138"
     inkscape:window-height="688"
     inkscape:window-x="112"
     inkscape:window-y="0"
     inkscape:window-maximized="0"
     inkscape:object-paths="false"
     inkscape:object-nodes="true"
     inkscape:snap-nodes="true" />
  <metadata
     id="metadata6323">
    <rdf:RDF>
      <cc:Work
         rdf:about="">
        <dc:format>image/svg+xml</dc:format>
        <dc:type
           rdf:resource="http://purl.org/dc/dcmitype/StillImage" />
        <dc:title />
      </cc:Work>
    </rdf:RDF>
  </metadata>
  <g
     inkscape:label="Calque 1"
     inkscape:groupmode="layer"
     id="layer1"
     transform="translate(0,28.34645)">
    <path
       sodipodi:nodetypes="cccccccccccccccccc"
       inkscape:connector-curvature="0"
       id="path6336"
       d="m 901.50335,694.73626 35.419,0 0,10.62985 35.4192,0 -10e-5,-10.62985 35.41925,0 10e-5,10.62985 35.4192,0 5e-4,-10.62985 35.4191,0 -5e-4,10.62985 35.4193,0 7e-4,-10.62985 35.4185,0 0,10.62985 35.4191,0 0,-10.62985 35.4193,0"
       style="fill:none;stroke:#000000;stroke-width:0.03521227;stroke-linecap:butt;stroke-linejoin:miter;stroke-miterlimit:4;stroke-opacity:1;stroke-dasharray:none" />
    <path
       style="fill:none;stroke:#000000;stroke-width:0.03492532;stroke-linecap:butt;stroke-linejoin:miter;stroke-miterlimit:4;stroke-opacity:1;stroke-dasharray:none"
       d="m 901.50335,375.83855 35.4027,-2e-5 0,-10.62991 35.403,0 -10e-5,10.62993 35.40305,0 10e-5,-10.62993 35.4029,0 5e-4,10.62993 35.4028,0 -4e-4,-10.62993 35.403,0 -8e-4,10.62993 35.4037,0 0,-10.62993 35.4029,0 0,10.62993 35.5493,0"
       id="path6982"
       inkscape:connector-curvature="0"
       sodipodi:nodetypes="cccccccccccccccccc" />
    <path
       style="fill:none;stroke:#000000;stroke-width:0.03521022;stroke-linecap:butt;stroke-linejoin:miter;stroke-miterlimit:4;stroke-opacity:1;stroke-dasharray:none"
       d="m 901.50335,694.73626 0,-35.41903 -10.5049,0 0,-35.41919 10.5049,10e-5 0,-35.41923 -10.5049,-1e-4 0,-35.41923 10.5049,-5e-4 0,-35.41914 -10.5049,5e-4 0,-35.41922 10.5049,-7e-4 0,-35.41854 -10.5049,0 0,-35.41913 10.5049,0 0,-35.5443"
       id="path6984"
       inkscape:connector-curvature="0"
       sodipodi:nodetypes="cccccccccccccccccc" />
    <path
       sodipodi:nodetypes="cccccccccccccccccc"
       inkscape:connector-curvature="0"
       id="path6986"
       d="m 1220.276,694.73626 0,-35.40892 10.3978,0 0,-35.4091 -10.3978,10e-5 0,-35.40913 10.3978,-1e-4 0,-35.40914 -10.3978,-4.9e-4 0,-35.40904 10.3978,5e-4 0,-35.40913 -10.3978,-7e-4 0,-35.40844 10.3978,0 0,-35.40903 -10.3978,0 -0.1082,-35.49894"
       style="fill:none;stroke:#000000;stroke-width:0.03502518;stroke-linecap:butt;stroke-linejoin:miter;stroke-miterlimit:4;stroke-opacity:1;stroke-dasharray:none" />
    <path
       style="fill:none;stroke:#000000;stroke-width:0.03543307;stroke-linecap:butt;stroke-linejoin:miter;stroke-miterlimit:4;stroke-opacity:1;stroke-dasharray:none"
       d="m 962.10854,348.96165 0,-126.72414 61.20686,0 0,126.72414 z"
       id="path7027"
       inkscape:connector-curvature="0"
       sodipodi:nodetypes="ccccc" />
    <path
       style="fill:none;stroke:#000000;stroke-width:0.03548381;stroke-linecap:butt;stroke-linejoin:miter;stroke-miterlimit:4;stroke-opacity:1;stroke-dasharray:none"
       d="m 1115.0309,200.22884 0,46.9063 53.0244,0 0,-53.02448 -53.0244,0 z"
       id="path7213"
       inkscape:connector-curvature="0" />
    <path
       inkscape:connector-curvature="0"
       id="path7226"
       d="m 1044.1648,200.22874 0,46.9063 53.0244,0 0,-53.02443 -53.0244,0 z"
       style="fill:none;stroke:#000000;stroke-width:0.03548386;stroke-linecap:butt;stroke-linejoin:miter;stroke-miterlimit:4;stroke-opacity:1;stroke-dasharray:none" />
    <path
       inkscape:connector-curvature="0"
       id="path7228"
       d="m 1115.0309,129.36272 0,46.90625 53.0244,0 0,-53.02446 -53.0244,0 z"
       style="fill:none;stroke:#000000;stroke-width:0.03548382;stroke-linecap:butt;stroke-linejoin:miter;stroke-miterlimit:4;stroke-opacity:1;stroke-dasharray:none" />
    <path
       style="fill:none;stroke:#000000;stroke-width:0.03548381;stroke-linecap:butt;stroke-linejoin:miter;stroke-miterlimit:4;stroke-opacity:1;stroke-dasharray:none"
       d="m 1044.1648,129.36262 0,46.90626 53.0244,0 0,-53.02446 -53.0244,0 z"
       id="path7230"
       inkscape:connector-curvature="0" />
    <path
       inkscape:connector-curvature="0"
       id="path7232"
       d="m 1007.6789,895.46592 0,46.9063 53.0244,0 0,-53.02448 -53.0244,0 z"
       style="fill:none;stroke:#000000;stroke-width:0.03548381;stroke-linecap:butt;stroke-linejoin:miter;stroke-miterlimit:4;stroke-opacity:1;stroke-dasharray:none" />
    <path
       style="fill:none;stroke:#000000;stroke-width:0.03548386;stroke-linecap:butt;stroke-linejoin:miter;stroke-miterlimit:4;stroke-opacity:1;stroke-dasharray:none"
       d="m 936.81303,895.46582 0,46.9063 53.0243,0 0,-53.02443 -53.0243,0 z"
       id="path7234"
       inkscape:connector-curvature="0" />
    <path
       style="fill:none;stroke:#000000;stroke-width:0.03548382;stroke-linecap:butt;stroke-linejoin:miter;stroke-miterlimit:4;stroke-opacity:1;stroke-dasharray:none"
       d="m 1007.6789,824.59981 0,46.90624 53.0244,0 0,-53.02445 -53.0244,0 z"
       id="path7236"
       inkscape:connector-curvature="0" />
    <path
       inkscape:connector-curvature="0"
       id="path7238"
       d="m 936.81303,824.59971 0,46.90625 53.0243,0 0,-53.02445 -53.0243,0 z"
       style="fill:none;stroke:#000000;stroke-width:0.03548381;stroke-linecap:butt;stroke-linejoin:miter;stroke-miterlimit:4;stroke-opacity:1;stroke-dasharray:none" />
    <path
       inkscape:connector-curvature="0"
       id="path7240"
       d="m 708.4362,607.58003 0,46.9063 53.02443,0 0,-53.02448 -53.02443,0 z"
       style="fill:none;stroke:#000000;stroke-width:0.03548381;stroke-linecap:butt;stroke-linejoin:miter;stroke-miterlimit:4;stroke-opacity:1;stroke-dasharray:none" />
    <path
       style="fill:none;stroke:#000000;stroke-width:0.03548386;stroke-linecap:butt;stroke-linejoin:miter;stroke-miterlimit:4;stroke-opacity:1;stroke-dasharray:none"
       d="m 637.57014,607.57993 0,46.9063 53.02443,0 0,-53.02443 -53.02443,0 z"
       id="path7242"
       inkscape:connector-curvature="0" />
    <path
       style="fill:none;stroke:#000000;stroke-width:0.03548382;stroke-linecap:butt;stroke-linejoin:miter;stroke-miterlimit:4;stroke-opacity:1;stroke-dasharray:none"
       d="m 708.4362,536.71392 0,46.90624 53.02443,0 0,-53.02445 -53.02443,0 z"
       id="path7244"
       inkscape:connector-curvature="0" />
    <path
       inkscape:connector-curvature="0"
       id="path7246"
       d="m 637.57014,536.71382 0,46.90625 53.02443,0 0,-53.02445 -53.02443,0 z"
       style="fill:none;stroke:#000000;stroke-width:0.03548381;stroke-linecap:butt;stroke-linejoin:miter;stroke-miterlimit:4;stroke-opacity:1;stroke-dasharray:none" />
    <path
       style="fill:none;stroke:#000000;stroke-width:0.03548381;stroke-linecap:butt;stroke-linejoin:miter;stroke-miterlimit:4;stroke-opacity:1;stroke-dasharray:none"
       d="m 1398.8139,485.74871 0,46.9063 53.0244,0 0,-53.02448 -53.0244,0 z"
       id="path7256"
       inkscape:connector-curvature="0" />
    <path
       inkscape:connector-curvature="0"
       id="path7258"
       d="m 1327.9478,485.74861 0,46.9063 53.0245,0 0,-53.02443 -53.0245,0 z"
       style="fill:none;stroke:#000000;stroke-width:0.03548386;stroke-linecap:butt;stroke-linejoin:miter;stroke-miterlimit:4;stroke-opacity:1;stroke-dasharray:none" />
    <path
       inkscape:connector-curvature="0"
       id="path7260"
       d="m 1398.8139,414.8826 0,46.90624 53.0244,0 0,-53.02445 -53.0244,0 z"
       style="fill:none;stroke:#000000;stroke-width:0.03548382;stroke-linecap:butt;stroke-linejoin:miter;stroke-miterlimit:4;stroke-opacity:1;stroke-dasharray:none" />
    <path
       style="fill:none;stroke:#000000;stroke-width:0.03548381;stroke-linecap:butt;stroke-linejoin:miter;stroke-miterlimit:4;stroke-opacity:1;stroke-dasharray:none"
       d="m 1327.9478,414.8825 0,46.90625 53.0245,0 0,-53.02445 -53.0245,0 z"
       id="path7262"
       inkscape:connector-curvature="0" />
    <path
       style="fill:none;stroke:#000000;stroke-width:0.03487008;stroke-linecap:butt;stroke-linejoin:miter;stroke-miterlimit:4;stroke-opacity:1;stroke-dasharray:none"
       d="m 1220.276,694.73626 37.3787,-8e-5 0,10.62993 35.4176,0 0,-10.62993 53.1262,0 0,10.62993 35.4174,0 0,-10.62993 53.1263,0 0,10.62993 35.4175,0 0,-10.62993 33.4565,0"
       id="path7295"
       inkscape:connector-curvature="0"
       sodipodi:nodetypes="cccccccccccccc" />
    <path
       inkscape:connector-curvature="0"
       id="path7299"
       d="m 1220.1678,375.83855 37.3787,0 0,10.62992 35.4176,0 0,-10.62992 53.1262,0 0,10.62992 35.4174,0.001 0,-10.63111 53.1263,0 0,10.62992 35.4175,0 0,-10.62992 33.4565,0"
       style="fill:none;stroke:#000000;stroke-width:0.03487008;stroke-linecap:butt;stroke-linejoin:miter;stroke-miterlimit:4;stroke-opacity:1;stroke-dasharray:none"
       sodipodi:nodetypes="cccccccccccccc" />
    <path
       style="fill:none;stroke:#000000;stroke-width:0.03487008;stroke-linecap:butt;stroke-linejoin:miter;stroke-miterlimit:4;stroke-opacity:1;stroke-dasharray:none"
       d="m 618.16317,375.83855 37.37867,0 0,-10.62993 35.41757,0 0,10.62993 53.12621,0 0,-10.62993 35.41747,0 0,10.62993 53.1263,0 0,-10.62993 35.41747,0 0,10.62993 33.45649,0"
       id="path7301"
       inkscape:connector-curvature="0"
       sodipodi:nodetypes="cccccccccccccc" />
    <path
       inkscape:connector-curvature="0"
       id="path7305"
       d="m 618.16317,694.73618 37.37867,0 0,-10.62992 35.41757,0 0,10.62992 53.12621,0 0,-10.62992 35.41747,0 0,10.62992 53.1263,0 0,-10.62992 35.41747,0 0,10.62992 33.45649,8e-5"
       style="fill:none;stroke:#000000;stroke-width:0.03487008;stroke-linecap:butt;stroke-linejoin:miter;stroke-miterlimit:4;stroke-opacity:1;stroke-dasharray:none"
       sodipodi:nodetypes="cccccccccccccc" />
    <path
       style="fill:none;stroke:#000000;stroke-width:0.03540626;stroke-linecap:butt;stroke-linejoin:miter;stroke-miterlimit:4;stroke-opacity:1;stroke-dasharray:none"
       d="m 901.37835,694.73624 0,35.43237 -10.63,0 0,35.43307 10.63,0 0,56.69292 -10.62992,0 0,31.88976 10.62992,0 0,55.01766 -10.62992,0 0,33.56502 10.62992,0 0,35.43307 318.89765,0 0,-35.43307 -10.6299,0 0,-35.43307 10.6299,0 0,-53.14961 -10.6299,0 -10e-5,-35.43307 10.6299,0 0,-53.14961 -10.6299,10e-6 0,-35.43307 10.6299,-1e-5 0,-35.43235"
       id="path7347"
       inkscape:connector-curvature="0"
       sodipodi:nodetypes="cccccccccccccccccccccccccccc" />
    <path
       sodipodi:nodetypes="cccccccccccccccccccccccccccc"
       inkscape:connector-curvature="0"
       id="path3009"
       d="m 1220.401,375.83855 0,-35.43237 10.63,0 0,-35.43307 -10.63,0 0,-56.69292 10.6298,0 0,-31.88976 -10.6298,0 0,-55.01766 10.6298,0 0,-33.56502 -10.6298,0 0,-35.433031 -318.89775,0 0,35.433031 10.6299,0 0,35.43307 -10.6299,0 0,53.14961 10.6299,0 10e-5,35.43307 -10.6299,0 0,53.14961 10.6299,-1e-5 0,35.43307 -10.6299,1e-5 0,35.43237"
       style="fill:none;stroke:#000000;stroke-width:0.03540626;stroke-linecap:butt;stroke-linejoin:miter;stroke-miterlimit:4;stroke-opacity:1;stroke-dasharray:none" />
    <path
       sodipodi:nodetypes="cccccccccccccccccc"
       inkscape:connector-curvature="0"
       id="path3019"
       d="m 618.16317,375.83855 -29.40051,17.69562 5.92183,7.92048 -29.40076,17.69576 -5.92177,-7.92055 -29.4008,17.6958 5.92175,7.92053 -29.40069,17.6957 -5.92225,-7.92022 -29.4006,17.69565 5.92217,7.92029 -29.40077,17.69575 -5.92117,-7.92089 -29.40135,17.69611 5.92184,7.9205 -29.40068,17.6957 -5.92184,-7.92049 -29.52226,17.76888"
       style="fill:none;stroke:#000000;stroke-width:0.03308224;stroke-linecap:butt;stroke-linejoin:miter;stroke-miterlimit:4;stroke-opacity:1;stroke-dasharray:none" />
    <path
       style="fill:none;stroke:#000000;stroke-width:0.03188976;stroke-linecap:butt;stroke-linejoin:miter;stroke-miterlimit:4;stroke-opacity:1;stroke-dasharray:none"
       d="m 1503.508,375.83836 29.4005,17.69562 -5.9218,7.92048 29.4007,17.69576 5.9218,-7.92055 29.4008,17.6958 -5.9218,7.92053 29.4007,17.6957 5.9222,-7.92022 29.4006,17.69565 -5.9221,7.92029 29.4007,17.69575 5.9212,-7.92089 29.4014,17.69611 -5.9219,7.9205 29.4007,17.6957 5.9218,-7.92049 29.5223,17.76888"
       id="path3027"
       inkscape:connector-curvature="0"
       sodipodi:nodetypes="cccccccccccccccccc" />
    <path
       sodipodi:nodetypes="cccccccccccccccccc"
       inkscape:connector-curvature="0"
       id="path3029"
       d="m 1503.6162,694.73618 29.4005,-17.69562 -5.9218,-7.92048 29.4007,-17.69576 5.9218,7.92055 29.4008,-17.69579 -5.9218,-7.92054 29.4007,-17.6957 5.9222,7.92022 29.4006,-17.69565 -5.9221,-7.92028 29.4007,-17.69576 5.9212,7.92089 29.4014,-17.69611 -5.9219,-7.9205 29.4007,-17.6957 5.9218,7.92049 29.5223,-17.76888"
       style="fill:none;stroke:#000000;stroke-width:0.03308224;stroke-linecap:butt;stroke-linejoin:miter;stroke-miterlimit:4;stroke-opacity:1;stroke-dasharray:none" />
    <path
       inkscape:connector-curvature="0"
       id="path3956"
       d="m 618.16317,694.73618 -29.36561,-17.69442 5.9375,-7.88248 -29.3658,-17.69457 -5.9374,7.88252 -29.36581,-17.69463 5.9373,-7.8825 -29.36581,-17.69458 -5.9377,7.8822 -29.3657,-17.69452 5.9377,-7.88225 -29.36571,-17.69458 -5.9369,7.88287 -29.3664,-17.69498 5.93749,-7.88248 -29.3657,-17.69457 -5.93741,7.88247 L 353.75,535.412"
       style="fill:none;stroke:#000000;stroke-width:0.03537405;stroke-linecap:butt;stroke-linejoin:miter;stroke-miterlimit:4;stroke-opacity:1;stroke-dasharray:none" />
    <path
       style="fill:none;stroke:#000000;stroke-width:0.03543307;stroke-linecap:butt;stroke-linejoin:miter;stroke-miterlimit:4;stroke-opacity:1;stroke-dasharray:none"
       d="m 97.802646,671.98054 -0.003,319.05202 0.003,-319.05202"
       id="path3998"
       inkscape:connector-curvature="0" />
    <path
       inkscape:connector-curvature="0"
       id="path4000"
       d="m 416.5753,671.98054 -0.003,319.05202 0.003,-319.05202"
       style="fill:none;stroke:#000000;stroke-width:0.03543307;stroke-linecap:butt;stroke-linejoin:miter;stroke-miterlimit:4;stroke-opacity:1;stroke-dasharray:none" />
    <path
       sodipodi:nodetypes="cccccccccccccccccc"
       inkscape:connector-curvature="0"
       id="path4002"
       d="m 97.802646,671.98054 35.402704,-2e-5 0,-10.62991 35.403,0 -1e-4,10.62993 35.40305,0 1e-4,-10.62993 35.4029,0 5e-4,10.62993 35.4028,0 -4e-4,-10.62993 35.403,0 -8e-4,10.62993 35.4037,0 0,-10.62993 35.4029,0 0,10.62993 35.5493,0"
       style="fill:none;stroke:#000000;stroke-width:0.03492532;stroke-linecap:butt;stroke-linejoin:miter;stroke-miterlimit:4;stroke-opacity:1;stroke-dasharray:none" />
    <path
       style="fill:none;stroke:#000000;stroke-width:0.03521227;stroke-linecap:butt;stroke-linejoin:miter;stroke-miterlimit:4;stroke-opacity:1;stroke-dasharray:none"
       d="m 97.799646,991.03256 35.419004,0 0,10.62984 35.4192,0 -10e-5,-10.62984 35.41925,0 1e-4,10.62984 35.4192,0 5e-4,-10.62984 35.4191,0 -5e-4,10.62984 35.4193,0 7e-4,-10.62984 35.4185,0 0,10.62984 35.4191,0 0,-10.62984 35.4193,0"
       id="path4006"
       inkscape:connector-curvature="0"
       sodipodi:nodetypes="cccccccccccccccccc" />
    <path
       inkscape:connector-curvature="0"
       id="path4008"
       d="m 103.3582,134.9435 -0.003,319.05202 0.003,-319.05202"
       style="fill:none;stroke:#000000;stroke-width:0.03543307;stroke-linecap:butt;stroke-linejoin:miter;stroke-miterlimit:4;stroke-opacity:1;stroke-dasharray:none" />
    <path
       style="fill:none;stroke:#000000;stroke-width:0.03543307;stroke-linecap:butt;stroke-linejoin:miter;stroke-miterlimit:4;stroke-opacity:1;stroke-dasharray:none"
       d="m 422.13085,134.9435 -0.003,319.05202 0.003,-319.05202"
       id="path4010"
       inkscape:connector-curvature="0" />
    <path
       style="fill:none;stroke:#000000;stroke-width:0.03492532;stroke-linecap:butt;stroke-linejoin:miter;stroke-miterlimit:4;stroke-opacity:1;stroke-dasharray:none"
       d="m 103.3582,134.9435 35.4027,-2e-5 0,-10.62991 35.403,0 -1e-4,10.62993 35.40305,0 1e-4,-10.62993 35.4029,0 5e-4,10.62993 35.4028,0 -4e-4,-10.62993 35.403,0 -8e-4,10.62993 35.4037,0 0,-10.62993 35.4029,0 0,10.62993 35.5493,0"
       id="path4012"
       inkscape:connector-curvature="0"
       sodipodi:nodetypes="cccccccccccccccccc" />
    <path
       sodipodi:nodetypes="cccccccccccccccccc"
       inkscape:connector-curvature="0"
       id="path4014"
       d="m 103.3552,453.99552 35.419,0 0,10.62984 35.4192,0 -1e-4,-10.62984 35.41925,0 1e-4,10.62984 35.4192,0 5e-4,-10.62984 35.4191,0 -5e-4,10.62984 35.4193,0 7e-4,-10.62984 35.4185,0 0,10.62984 35.4191,0 0,-10.62984 35.4193,0"
       style="fill:none;stroke:#000000;stroke-width:0.03521227;stroke-linecap:butt;stroke-linejoin:miter;stroke-miterlimit:4;stroke-opacity:1;stroke-dasharray:none" />
    <path
       style="fill:none;stroke:#000000;stroke-width:0.03543307;stroke-linecap:butt;stroke-linejoin:miter;stroke-miterlimit:4;stroke-opacity:1;stroke-dasharray:none"
       d="m 1305.5645,37.98718 0,17.71654 -10.63,0 0,17.716529 10.63,0 0,35.433071 -10.63,0 0,17.71654 10.63,0 0,17.71653 14.1732,0 0,10.62993 17.7165,0 0,-10.62993 14.1732,-0.0871 0,-17.62943 10.63,0 0,-17.71654 -10.63,0 0,-35.433071 10.63,0 0,-17.716529 -10.63,0 0,-17.7165 z"
       id="path4081"
       inkscape:connector-curvature="0"
       sodipodi:nodetypes="ccccccccccccccccccccccccc" />
    <path
       style="fill:none;stroke:#000000;stroke-width:0.03543307;stroke-linecap:butt;stroke-linejoin:miter;stroke-miterlimit:4;stroke-opacity:1;stroke-dasharray:none"
       d="m 1230.9743,25.14565 46.063,0 0,17.71801 10.6299,0 0,17.71654 -10.6299,0 0,35.43307 -14.1733,0 0,11.58307 -17.7165,0 0,-11.58307 -14.1732,0 0,-35.43307 -10.63,0 0,-17.71654 10.63,0 z"
       id="path4087"
       inkscape:connector-curvature="0"
       sodipodi:nodetypes="ccccccccccccccccc" />
    <path
       style="fill:none;stroke:#000000;stroke-width:0.03543307;stroke-linecap:butt;stroke-linejoin:miter;stroke-miterlimit:4;stroke-opacity:1;stroke-dasharray:none"
       d="m 1392.0013,38.234885 46.2292,3.55e-4 0,17.71618 10.6303,0 0,17.716535 -10.6299,0 0,35.433075 10.6299,0 0,17.71653 -10.6299,0 0.1893,17.71654 -46.4189,-35.43124 0,-0.002 0,-35.433071 -10.6299,-1.71e-4 0,-17.716535 10.6299,1.71e-4 z"
       id="path4091"
       inkscape:connector-curvature="0"
       sodipodi:nodetypes="cccccccccccccccccc" />
    <path
       sodipodi:nodetypes="cccccccccccccccccc"
       inkscape:connector-curvature="0"
       id="path4093"
       d="m 1462.8016,63.520698 46.2292,3.55e-4 0,17.71618 10.6303,0 0,17.716535 -10.6299,0 0,35.433072 10.6299,0 0,17.71653 -10.6299,0 0.1893,17.71654 -46.4189,-35.43124 0,-0.002 0,-35.433068 -10.6299,-1.71e-4 0,-17.716535 10.6299,1.71e-4 z"
       style="fill:none;stroke:#000000;stroke-width:0.03543307;stroke-linecap:butt;stroke-linejoin:miter;stroke-miterlimit:4;stroke-opacity:1;stroke-dasharray:none" />
  </g>
</svg>
